<?xml version="1.0" encoding="iso-8859-1"?>
<!-- Generator: Adobe Illustrator 19.0.0, SVG Export Plug-In . SVG Version: 6.00 Build 0)  -->
<svg version="1.1" id="Layer_1" xmlns="http://www.w3.org/2000/svg" xmlns:xlink="http://www.w3.org/1999/xlink" x="0px" y="0px"
	 viewBox="0 0 275.365 275.365" style="enable-background:new 0 0 275.365 275.365;" xml:space="preserve">
<g>
	<path style="fill:#1D1D1B;" d="M210.673,60.974c6.108,4.34,7.635,13.141,3.014,19.41c-4.903,6.59-12.94,6.229-20.535,6.43
		c10.247,13.261,23.75,37.091,4.782,49.669c-4.943,3.255-10.087,3.175-15.271,2.13c0,0.161,0,0.322-0.04,0.482
		c-10.408,33.434-21.258,66.748-31.948,100.102c-2.893,8.961-4.862,34.68-18.043,35.002c-0.161,0.763-0.844,1.326-1.808,1.125
		c-14.909-3.536-17.441-32.309-21.258-44.244c-9.082-28.331-18.887-56.581-26.442-85.354c-11.131-1.768-20.696-7.314-23.428-20.093
		c-4.059-19.088,9.725-41.472,27.969-46.937c-2.21-5.586-1.206-12.176,1.849-18.968c4.26-9.524,13.06-17.561,23.71-15.713
		c0.161-0.321,0.321-0.643,0.522-1.005c4.3-4.34,6.389-9.886,6.229-16.597c-1.045-3.175-2.572-6.028-4.581-8.64
		c-0.844-1.447-2.291-2.893-2.612-4.621c-0.643-3.215,0.643-6.229,2.974-8.399c15.713-14.668,52.965,7.515,51.076,27.166l-0.04,0.04
		c4.581,0.201,8.68,2.652,9.805,8.117c2.974,0.322,5.827,0.764,7.233,3.295c1.728-8.238,10.649-16.315,19.289-14.226
		c0.402,0.08,0.643,0.362,0.804,0.683c0.04,0,0.04,0,0.12,0c3.898,1.165,6.952,5.787,4.099,9.564
		c-1.567,2.049-4.018,2.17-6.43,2.291c-2.09,0.08-3.818,0.281-5.505,1.607c-0.402,0.321-3.376,4.26-2.773,4.38
		c0.402,0.08,0.603,0.482,0.563,0.844c7.033-0.563,13.944,5.224,16.597,11.372C210.713,60.25,210.753,60.612,210.673,60.974z
		 M206.293,81.549c8.479-4.34,7.033-13.944,0.764-19.289c-0.522-0.402-0.603-0.965-0.442-1.407
		c-3.697-2.17-9.202,0.643-13.382-0.402c0.321,2.17-0.121,4.501-1.406,6.269c-2.21,3.094-6.43,4.219-9.926,2.893
		c-0.844-0.322-1.607-1.407-0.924-2.291c1.527-2.09,0.603-4.742,0.08-7.354c-4.742,4.3-13.743,3.858-18.727,1.045
		c-1.366-0.764-0.844-3.094,0.804-3.014c3.938,0.281,5.224-4.621,8.037-6.43c0.522-0.322,1.045-0.563,1.607-0.764
		c-1.286-0.884-2.451-2.009-3.295-3.094c-1.447-1.808-2.371-3.938-2.733-6.148c-0.04,0.201-0.121,0.442-0.281,0.683
		c-0.683,1.045-1.527,1.808-2.492,2.612c-1.206,1.045-3.335-0.321-2.331-1.768c0.683-1.005,1.366-2.009,2.331-2.773
		c0.884-0.723,2.25-0.281,2.652,0.563c-0.12-0.723-0.161-1.447-0.12-2.21c0-1.165,1.447-1.808,2.331-0.965
		c1.326,1.366,3.295,1.808,5.425,2.09c-5.465-7.475-15.471-5.224-19.651,3.054c-2.773,5.385-2.411,11.332-1.648,17.199
		c0.442,3.215,1.326,6.55,0.764,9.805c-0.362,2.049-1.326,3.295-1.969,5.023c0.04,0.362-0.04,0.643-0.241,0.924
		c0.362,0.322,0.764,0.643,1.085,1.045c1.326,1.728,2.009,3.938,1.607,6.148c-0.08,0.281-0.201,0.603-0.322,0.884
		c2.13-1.527,4.943-2.17,7.394-0.844c1.648,0.884,3.577,3.577,3.777,5.907c3.175-1.808,7.354-1.607,10.529,0.522
		c0.402,0.241,0.763,0.563,1.125,0.884c2.371-4.059,6.631-5.505,11.493-6.108C194.157,83.518,200.787,84.362,206.293,81.549z
		 M203.882,56.834c0.281,0,0.603,0.08,0.884,0.08c-0.884-1.005-1.889-1.969-3.054-2.773c-2.652-1.768-5.425-2.13-8.359-2.974
		c-0.844-0.201-1.165-1.286-0.844-1.969c-2.893-0.482-0.723-5.706,0.563-7.233c1.607-1.929,3.858-3.215,6.389-3.536
		c1.286-0.201,2.813,0.12,4.059-0.201c4.139-1.165,2.411-4.661-0.402-6.229c-0.08-0.04-0.12-0.121-0.161-0.161
		c-3.898,0.563-7.274,0.844-10.609,3.295c-3.536,2.652-5.706,6.349-6.711,10.609c-0.201,0.924-1.366,0.964-1.889,0.362
		c-0.402,0.241-0.924,0.241-1.286-0.201c-2.934-3.536-8.76-1.849-12.699-3.456c0.482,1.447,1.206,2.773,2.25,3.978
		c1.768,2.009,4.059,2.532,6.229,3.858c1.005,0.643,0.482,2.009-0.563,2.09c-0.482,0.04-0.924,0.04-1.366-0.04
		c-1.206,0.482-2.451,0.924-3.496,1.728c-1.447,1.125-2.25,2.773-3.456,4.139c-0.482,0.603-1.045,1.085-1.607,1.527
		c1.969,0.482,3.978,0.563,6.028,0.08c3.215-0.723,5.104-2.692,7.796-4.3c1.085-0.683,2.09,0.603,1.648,1.607
		c-0.12,0.201-0.281,0.362-0.362,0.522c0.844,3.094,2.492,6.269,1.648,9.323c1.728,0.12,3.416-0.442,4.541-1.849
		c1.849-2.25,1.045-5.023-0.321-7.193c-0.482-0.764-0.121-1.527,0.482-1.889c0.362-0.603,1.286-0.804,1.848-0.04
		C194.076,60.089,199.863,56.794,203.882,56.834z M202.314,122.096c4.621-11.975-6.912-25.638-13.422-34.359
		c-0.161-0.201-0.241-0.402-0.281-0.643c-4.139,0.442-7.876,1.567-10.488,4.822c2.612,3.496,3.496,8.559,1.688,12.417
		c-0.804,1.648-3.536,0.844-3.456-0.965c0.201-3.657,0.764-7.233-2.13-10.167c-2.773-2.813-7.394-2.773-10.207-0.12
		c-0.804,0.763-2.13,0.04-2.09-0.884c-0.362-0.241-0.643-0.683-0.723-1.206c-0.121-1.005,0.442-1.889,0.161-2.934
		c-0.281-0.884-0.924-1.768-1.728-2.21c-2.09-1.085-4.38,0.121-5.787,1.768c0.402,0.563,0.683,1.125,0.844,1.728
		c0.402,1.366-1.206,2.049-2.17,1.286c-1.005-0.804-1.527-2.009-2.291-3.014c-0.884-1.165-1.929-2.25-2.934-3.335
		c-0.723-0.804,0.241-2.21,1.206-1.567c0.442,0.281,0.884,0.603,1.366,0.964c0.402-0.563,0.804-1.125,0.884-1.929
		c0.121-1.286-0.482-2.492-1.326-3.416c-1.849-2.009-4.702-2.572-7.193-1.567c-0.362,0.12-0.683,0.08-0.964-0.08
		c-0.121,0-0.241,0.04-0.402,0.04c-1.045-0.121-1.527-1.005-1.125-1.969c0.522-1.246,2.09-1.929,1.406-3.536
		c-0.643-1.607-2.853-1.447-4.059-0.643c-0.804,0.563-1.889-0.522-1.326-1.326c1.848-2.492,5.827-2.733,7.756-0.04
		c0.683,0.924,0.884,2.612,0.683,4.099c1.487-0.161,3.054,0.04,4.501,0.643c0-0.161,0.04-0.321,0-0.522
		c-0.12-2.291,1.768-5.425,1.648-8.238c-0.121-2.451-0.844-4.943-1.085-7.394c-0.643-7.153-0.08-14.788,4.822-20.454
		c2.652-3.094,6.872-5.023,10.93-5.345c-2.17-10.127-10.971-18.887-19.972-23.549c-4.179-2.13-9.886-4.179-14.708-4.018
		c-6.028-0.603-10.489,2.612-13.382,9.604c0.804,1.125,1.567,2.25,2.331,3.456c2.17,4.943,5.304,9.202,4.541,14.949
		c-0.964,7.555-14.788,18.445-4.26,25.839c1.206,0.844,0.482,3.134-1.045,2.492c-7.675-3.135-9.202-8.238-6.43-14.628
		c-8.761,1.246-15.15,6.832-18.887,15.15c-1.607,3.536-3.134,7.635-3.094,11.573c0.08,6.309,3.496,9.082,7.756,12.618
		c1.366,1.165-0.402,3.335-1.889,2.451c-3.496-2.09-5.907-4.581-7.434-7.354c-23.991,13.623-40.628,60.198,1.849,62.167
		c16.637,0.723,32.349-6.711,48.263-10.368c10.489-2.371,20.696-3.617,31.345-1.366
		C181.217,133.348,194.438,142.711,202.314,122.096z M179.127,138.13c0.04-0.12,0.121-0.161,0.161-0.281
		c-2.532-0.643-5.063-1.366-7.555-1.929c-21.097-4.863-39.261,3.215-59.394,7.997c-7.796,1.849-17.441,3.094-26.402,2.21
		c7.515,20.213,13.743,40.949,20.213,61.524c3.536,11.212,7.073,22.424,10.609,33.595c2.612,8.318,5.385,27.608,14.828,31.104
		c9.283-3.376,14.346-31.023,16.557-37.895c3.175-9.886,6.309-19.771,9.484-29.657C164.741,182.575,171.814,160.313,179.127,138.13z
		"/>
	<path style="fill:#EF67AC;" d="M207.056,62.26c6.269,5.345,7.716,14.949-0.764,19.289c-5.505,2.813-12.136,1.969-18.083,2.692
		c-4.863,0.603-9.122,2.049-11.493,6.108c-0.362-0.321-0.723-0.643-1.125-0.884c-3.175-2.13-7.354-2.331-10.529-0.522
		c-0.201-2.331-2.13-5.023-3.777-5.907c-2.451-1.326-5.264-0.683-7.394,0.844c0.12-0.281,0.241-0.603,0.322-0.884
		c0.402-2.21-0.281-4.421-1.607-6.148c-0.321-0.402-0.723-0.723-1.085-1.045c0.201-0.281,0.281-0.563,0.241-0.924
		c0.643-1.728,1.607-2.974,1.969-5.023c0.563-3.255-0.321-6.59-0.764-9.805c-0.764-5.867-1.125-11.814,1.648-17.199
		c4.179-8.278,14.186-10.529,19.651-3.054c-2.13-0.281-4.099-0.723-5.425-2.09c-0.884-0.844-2.331-0.201-2.331,0.965
		c-0.04,0.764,0,1.487,0.12,2.21c-0.402-0.844-1.768-1.286-2.652-0.563c-0.964,0.764-1.648,1.768-2.331,2.773
		c-1.005,1.447,1.125,2.813,2.331,1.768c0.965-0.804,1.808-1.567,2.492-2.612c0.161-0.241,0.241-0.482,0.281-0.683
		c0.362,2.21,1.286,4.34,2.733,6.148c0.844,1.085,2.009,2.21,3.295,3.094c-0.563,0.201-1.085,0.442-1.607,0.764
		c-2.813,1.808-4.099,6.711-8.037,6.43c-1.648-0.08-2.17,2.25-0.804,3.014c4.983,2.813,13.985,3.255,18.727-1.045
		c0.522,2.612,1.447,5.264-0.08,7.354c-0.683,0.884,0.08,1.969,0.924,2.291c3.496,1.326,7.716,0.201,9.926-2.893
		c1.286-1.768,1.728-4.099,1.406-6.269c4.179,1.045,9.685-1.768,13.382,0.402C206.454,61.295,206.534,61.858,207.056,62.26z
		 M206.413,71.221c0.844-1.768,0.241-3.577-0.603-5.304c-0.643-1.326-2.572-0.362-2.25,0.964c0.322,1.366,0.04,2.692,0.362,4.019
		C204.163,71.984,205.891,72.306,206.413,71.221z M203.882,76.164c1.447-0.643,0.322-2.572-1.005-2.371
		c-1.487,0.201-3.054,0.362-4.38,1.085c-1.286,0.683-0.763,2.893,0.764,2.773C200.868,77.57,202.355,76.767,203.882,76.164z
		 M200.908,68.569c0.08-1.165-1.688-1.607-2.21-0.603c-0.643,1.326-1.889,1.688-2.652,2.893c-0.362,0.643-0.04,1.808,0.804,1.929
		C199.301,73.15,200.747,70.739,200.908,68.569z M182.664,81.87c0.964-0.04,1.206-1.447,0.241-1.688
		c-3.536-0.924-7.153,1.045-9.082,3.978c-0.482,0.764,0.683,1.648,1.246,0.965C177.118,82.794,179.65,82.031,182.664,81.87z
		 M168.92,69.935c0.482-1.085-0.322-2.411-1.567-2.09c-1.808,0.482-3.094,2.532-3.778,4.179c-0.522,1.286,1.246,1.889,2.049,1.205
		C166.75,72.346,168.358,71.221,168.92,69.935z M159.999,75.963c0.482-2.049,0.563-4.903-0.723-6.631
		c-0.764-1.085-2.934-0.884-2.813,0.723c0.161,1.889,0.804,3.617,0.924,5.546C157.467,77.048,159.637,77.49,159.999,75.963z"/>
	<path style="fill:#1D1D1B;" d="M205.811,65.916c0.844,1.728,1.447,3.536,0.603,5.304c-0.522,1.085-2.25,0.763-2.492-0.322
		c-0.322-1.326-0.04-2.652-0.362-4.019C203.239,65.555,205.168,64.59,205.811,65.916z"/>
	<path style="fill:#33AA6C;" d="M204.766,56.915c-0.281,0-0.603-0.08-0.884-0.08c-4.019-0.04-9.805,3.255-12.819-0.844
		c-0.563-0.764-1.487-0.563-1.848,0.04c-0.603,0.362-0.964,1.125-0.482,1.889c1.366,2.17,2.17,4.943,0.321,7.193
		c-1.125,1.407-2.813,1.969-4.541,1.849c0.844-3.054-0.804-6.229-1.648-9.323c0.08-0.161,0.241-0.321,0.362-0.522
		c0.442-1.005-0.563-2.291-1.648-1.607c-2.692,1.607-4.581,3.576-7.796,4.3c-2.049,0.482-4.059,0.402-6.028-0.08
		c0.563-0.442,1.125-0.924,1.607-1.527c1.206-1.366,2.009-3.014,3.456-4.139c1.045-0.804,2.291-1.246,3.496-1.728
		c0.442,0.08,0.884,0.08,1.366,0.04c1.045-0.08,1.567-1.447,0.563-2.09c-2.17-1.326-4.461-1.848-6.229-3.858
		c-1.045-1.206-1.768-2.532-2.25-3.978c3.938,1.607,9.765-0.08,12.699,3.456c0.362,0.442,0.884,0.442,1.286,0.201
		c0.523,0.603,1.688,0.563,1.889-0.362c1.005-4.26,3.175-7.957,6.711-10.609c3.335-2.451,6.711-2.733,10.609-3.295
		c0.04,0.04,0.08,0.121,0.161,0.161c2.813,1.567,4.541,5.063,0.402,6.229c-1.246,0.321-2.773,0-4.059,0.201
		c-2.532,0.321-4.782,1.607-6.389,3.536c-1.286,1.527-3.456,6.751-0.563,7.233c-0.321,0.683,0,1.768,0.844,1.969
		c2.934,0.844,5.706,1.206,8.359,2.974C202.877,54.946,203.882,55.91,204.766,56.915z"/>
	<path style="fill:#1D1D1B;" d="M202.877,73.793c1.326-0.201,2.451,1.728,1.005,2.371c-1.527,0.603-3.014,1.406-4.621,1.487
		c-1.527,0.12-2.049-2.09-0.764-2.773C199.823,74.154,201.39,73.994,202.877,73.793z"/>
	<path style="fill:#F8F8CC;" d="M188.892,87.737c6.51,8.72,18.043,22.383,13.422,34.359c-7.876,20.615-21.097,11.252-32.309,8.921
		c-10.649-2.25-20.856-1.005-31.345,1.366c-15.913,3.657-31.626,11.091-48.263,10.368c-42.476-1.969-25.839-48.544-1.849-62.167
		c1.527,2.773,3.938,5.264,7.434,7.354c1.487,0.884,3.255-1.286,1.889-2.451c-4.26-3.536-7.676-6.309-7.756-12.618
		c-0.04-3.938,1.487-8.037,3.094-11.573c3.737-8.318,10.127-13.904,18.887-15.15c-2.773,6.389-1.246,11.493,6.43,14.628
		c1.527,0.643,2.25-1.648,1.045-2.492c-10.529-7.394,3.295-18.285,4.26-25.839c0.763-5.747-2.371-10.006-4.541-14.949
		c-0.764-1.206-1.527-2.331-2.331-3.456c2.893-6.992,7.354-10.207,13.382-9.604c4.822-0.161,10.529,1.889,14.708,4.018
		c9.002,4.662,17.802,13.422,19.972,23.549c-4.059,0.322-8.278,2.25-10.93,5.345c-4.903,5.666-5.465,13.301-4.822,20.454
		c0.241,2.451,0.964,4.943,1.085,7.394c0.12,2.813-1.768,5.948-1.648,8.238c0.04,0.201,0,0.362,0,0.522
		c-1.447-0.603-3.014-0.804-4.501-0.643c0.201-1.487,0-3.175-0.683-4.099c-1.929-2.692-5.907-2.451-7.756,0.04
		c-0.563,0.804,0.522,1.889,1.326,1.326c1.206-0.804,3.416-0.965,4.059,0.643c0.683,1.607-0.884,2.29-1.406,3.536
		c-0.402,0.965,0.08,1.848,1.125,1.969c0.161,0,0.281-0.04,0.402-0.04c0.281,0.161,0.603,0.201,0.964,0.08
		c2.492-1.005,5.345-0.442,7.193,1.567c0.844,0.924,1.447,2.13,1.326,3.416c-0.08,0.804-0.482,1.366-0.884,1.929
		c-0.482-0.362-0.924-0.683-1.366-0.964c-0.964-0.643-1.929,0.763-1.206,1.567c1.005,1.085,2.049,2.17,2.934,3.335
		c0.764,1.005,1.286,2.21,2.291,3.014c0.964,0.764,2.572,0.08,2.17-1.286c-0.161-0.603-0.442-1.165-0.844-1.728
		c1.407-1.648,3.697-2.853,5.787-1.768c0.804,0.442,1.447,1.326,1.728,2.21c0.281,1.045-0.281,1.929-0.161,2.934
		c0.08,0.522,0.362,0.965,0.723,1.206c-0.04,0.924,1.286,1.648,2.09,0.884c2.813-2.652,7.434-2.692,10.207,0.12
		c2.893,2.934,2.331,6.51,2.13,10.167c-0.08,1.808,2.652,2.612,3.456,0.965c1.808-3.858,0.924-8.921-1.688-12.417
		c2.612-3.255,6.349-4.38,10.488-4.822C188.651,87.335,188.732,87.536,188.892,87.737z M195.845,107.468
		c0.322,0.844,1.849,0.844,1.768-0.241c-0.482-5.063-4.581-9.082-9.162-10.85c-0.603-0.241-0.964,0.683-0.442,1.005
		C192.107,99.632,194.197,103.249,195.845,107.468z M192.268,112.25c0.161,1.206,2.009,1.286,1.929,0
		c-0.12-3.858-1.487-7.193-3.898-10.167c-0.723-0.844-2.17,0.281-1.567,1.165C190.62,105.941,191.826,109.036,192.268,112.25z
		 M146.055,12.711c0.563,0.442,1.487-0.121,1.045-0.804c-2.371-3.617-6.51-5.425-10.649-5.947c-0.804-0.121-1.005,1.286-0.201,1.447
		C140.107,8.17,143.121,10.219,146.055,12.711z M145.773,18.015c0.844,0.723,2.049-0.442,1.246-1.246
		c-2.692-2.813-5.947-5.304-9.564-6.912c-0.964-0.442-1.768,0.844-0.844,1.447C139.786,13.394,142.88,15.524,145.773,18.015z
		 M138.5,45.944c0.161,1.165,1.969,1.246,1.889,0c-0.121-1.849-0.241-3.697-0.402-5.546c-0.08-1.326-2.25-1.326-2.09,0
		C138.058,42.247,138.299,44.096,138.5,45.944z M139.585,112.291c0.723-0.201,0.402-1.246-0.281-1.085
		c-3.175,0.683-6.349,0.241-9.122-1.447c-0.603-0.362-1.165,0.563-0.563,0.965C132.633,112.693,136.129,113.335,139.585,112.291z
		 M135.325,103.811c0.723,0.603,1.728-0.321,1.045-1.045c-1.567-1.607-3.215-3.134-4.862-4.661c-0.884-0.804-2.13,0.482-1.286,1.286
		C131.869,100.918,133.557,102.405,135.325,103.811z M101.73,74.597c0.643,0.563,1.849-0.161,1.246-0.965
		c-0.884-1.206-1.567-2.331-1.889-3.818c-0.241-1.165-2.049-0.643-1.768,0.482C99.68,72.025,100.404,73.471,101.73,74.597z
		 M97.309,79.017c0.522,0.563,1.487-0.161,1.085-0.804c-1.407-2.13-2.291-4.581-2.331-7.153c-0.04-1.125-1.768-1.125-1.768,0
		C94.295,74.114,95.179,76.807,97.309,79.017z M93.733,133.187c0.965,0.08,1.165-1.527,0.241-1.688
		c-3.255-0.563-6.39-1.447-9.363-2.893c-1.005-0.482-1.889,1.005-0.884,1.527C86.901,131.781,90.196,132.826,93.733,133.187z
		 M88.067,136.442c0.764-0.402,0.241-1.648-0.603-1.407c-3.416,1.085-7.033,0.723-9.765-1.728c-0.884-0.764-2.21,0.522-1.326,1.326
		C79.547,137.527,84.169,138.492,88.067,136.442z"/>
	<path style="fill:#1D1D1B;" d="M198.698,67.966c0.522-1.005,2.291-0.563,2.21,0.603c-0.161,2.17-1.607,4.581-4.059,4.219
		c-0.844-0.121-1.165-1.286-0.804-1.929C196.809,69.654,198.055,69.292,198.698,67.966z"/>
	<path style="fill:#1D1D1B;" d="M197.613,107.227c0.08,1.085-1.447,1.085-1.768,0.241c-1.648-4.219-3.737-7.836-7.836-10.087
		c-0.522-0.321-0.161-1.246,0.442-1.005C193.032,98.145,197.131,102.164,197.613,107.227z"/>
	<path style="fill:#1D1D1B;" d="M194.197,112.25c0.08,1.286-1.768,1.206-1.929,0c-0.442-3.215-1.648-6.309-3.536-9.002
		c-0.603-0.884,0.844-2.009,1.567-1.165C192.71,105.057,194.076,108.393,194.197,112.25z"/>
	<path style="fill:#1D1D1B;" d="M182.905,80.182c0.965,0.241,0.723,1.648-0.241,1.688c-3.014,0.161-5.546,0.924-7.595,3.255
		c-0.563,0.683-1.728-0.201-1.246-0.965C175.752,81.227,179.368,79.258,182.905,80.182z"/>
	<path style="fill:#FDE9CC;" d="M179.288,137.849c-0.04,0.121-0.12,0.161-0.161,0.281c-7.314,22.183-14.387,44.445-21.499,66.668
		c-3.175,9.886-6.309,19.771-9.484,29.657c-2.21,6.872-7.274,34.519-16.557,37.895c-9.444-3.496-12.216-22.785-14.828-31.104
		c-3.536-11.172-7.073-22.383-10.609-33.595c-6.47-20.575-12.699-41.311-20.213-61.524c8.961,0.884,18.606-0.362,26.402-2.21
		c20.133-4.782,38.297-12.859,59.394-7.997C174.225,136.482,176.756,137.206,179.288,137.849z M171.773,153.441
		c0.04-1.085-1.487-1.005-1.648,0c-0.482,3.818-1.246,7.555-1.969,11.292c-0.201,1.165,1.406,1.607,1.768,0.482
		C171.171,161.438,171.693,157.419,171.773,153.441z M164.821,171.484c1.768-3.456,2.09-7.475,0.924-11.212
		c-0.201-0.603-1.246-0.522-1.165,0.161c0.402,3.657-0.121,6.912-1.447,10.328C162.772,171.725,164.339,172.408,164.821,171.484z
		 M144.608,208.696c0.121-1.246-2.009-1.567-2.21-0.281c-0.482,2.733-0.804,5.505-1.085,8.318c-0.121,1.165,1.929,1.487,2.13,0.281
		C143.885,214.242,144.286,211.469,144.608,208.696z M138.58,180.245c0.362-1.849,0.683-3.778,0.603-5.706
		c-0.04-0.844-1.326-1.085-1.527-0.201c-0.442,1.848-0.522,3.818-0.522,5.706C137.133,180.888,138.419,181.129,138.58,180.245z
		 M134.682,163.206c0.161-1.206-1.447-1.688-1.848-0.522c-1.125,3.536-1.407,7.515-0.201,11.051
		c0.322,0.924,1.808,0.844,1.768-0.201C134.24,169.997,134.119,166.662,134.682,163.206z M125.078,233.772
		c0.683,0.924,2.21,0.161,1.607-0.924c-1.648-2.813-3.094-5.666-3.938-8.801c-0.321-1.125-2.009-0.683-1.768,0.442
		C121.742,227.865,122.948,231.039,125.078,233.772z M118.648,230.195c0.603,0.844,1.929,0.12,1.407-0.804
		c-1.849-3.335-2.934-6.59-3.496-10.328c-0.121-0.884-1.487-0.643-1.487,0.161C115.112,223.123,116.357,227.061,118.648,230.195z
		 M109.566,153.883c0.643-0.362,0.08-1.286-0.563-1.005c-2.532,1.206-5.345,1.607-8.077,1.045c-0.844-0.161-1.206,1.085-0.362,1.286
		C103.739,155.932,106.753,155.571,109.566,153.883z M105.989,150.708c0.844-0.281,0.763-1.728-0.201-1.607
		c-3.134,0.402-6.189,0.563-9.283-0.04c-1.165-0.241-1.648,1.447-0.522,1.728C99.319,151.632,102.734,151.793,105.989,150.708z"/>
	<path style="fill:#1D1D1B;" d="M170.126,153.441c0.161-1.005,1.688-1.085,1.648,0c-0.08,3.978-0.603,7.997-1.848,11.775
		c-0.362,1.125-1.969,0.683-1.768-0.482C168.88,160.996,169.644,157.258,170.126,153.441z"/>
	<path style="fill:#1D1D1B;" d="M167.353,67.845c1.246-0.321,2.049,1.005,1.567,2.09c-0.563,1.286-2.17,2.411-3.295,3.295
		c-0.804,0.683-2.572,0.08-2.049-1.205C164.259,70.377,165.545,68.328,167.353,67.845z"/>
	<path style="fill:#1D1D1B;" d="M165.746,160.272c1.165,3.737,0.844,7.756-0.924,11.212c-0.482,0.924-2.049,0.241-1.688-0.723
		c1.326-3.416,1.849-6.671,1.447-10.328C164.5,159.75,165.545,159.67,165.746,160.272z"/>
	<path style="fill:#1D1D1B;" d="M159.276,69.332c1.286,1.728,1.205,4.581,0.723,6.631c-0.362,1.527-2.532,1.085-2.612-0.362
		c-0.12-1.929-0.763-3.657-0.924-5.546C156.342,68.448,158.512,68.247,159.276,69.332z"/>
	<path style="fill:#1D1D1B;" d="M147.099,11.907c0.442,0.683-0.482,1.246-1.045,0.804c-2.934-2.492-5.948-4.541-9.805-5.305
		c-0.804-0.161-0.603-1.567,0.201-1.447C140.589,6.482,144.728,8.29,147.099,11.907z"/>
	<path style="fill:#1D1D1B;" d="M147.019,16.769c0.804,0.804-0.402,1.969-1.246,1.246c-2.893-2.491-5.988-4.621-9.162-6.711
		c-0.924-0.603-0.121-1.889,0.844-1.447C141.072,11.465,144.327,13.956,147.019,16.769z"/>
	<path style="fill:#1D1D1B;" d="M142.398,208.415c0.201-1.286,2.331-0.965,2.21,0.281c-0.322,2.773-0.723,5.546-1.165,8.318
		c-0.201,1.206-2.25,0.884-2.13-0.281C141.594,213.92,141.915,211.147,142.398,208.415z"/>
	<path style="fill:#1D1D1B;" d="M140.388,45.944c0.08,1.246-1.728,1.165-1.889,0c-0.201-1.849-0.442-3.697-0.603-5.546
		c-0.161-1.326,2.009-1.326,2.09,0C140.147,42.247,140.268,44.096,140.388,45.944z"/>
	<path style="fill:#1D1D1B;" d="M139.303,111.206c0.683-0.161,1.005,0.884,0.281,1.085c-3.456,1.045-6.952,0.402-9.966-1.567
		c-0.603-0.402-0.04-1.326,0.563-0.965C132.954,111.447,136.129,111.889,139.303,111.206z"/>
	<path style="fill:#1D1D1B;" d="M139.183,174.538c0.08,1.929-0.241,3.858-0.603,5.706c-0.161,0.884-1.447,0.643-1.447-0.201
		c0-1.889,0.08-3.858,0.522-5.706C137.857,173.453,139.143,173.694,139.183,174.538z"/>
	<path style="fill:#1D1D1B;" d="M136.37,102.767c0.683,0.723-0.321,1.648-1.045,1.045c-1.768-1.407-3.456-2.893-5.104-4.42
		c-0.844-0.804,0.402-2.09,1.286-1.286C133.155,99.632,134.803,101.159,136.37,102.767z"/>
	<path style="fill:#1D1D1B;" d="M132.833,162.684c0.402-1.165,2.009-0.683,1.848,0.522c-0.563,3.456-0.442,6.791-0.281,10.328
		c0.04,1.045-1.447,1.125-1.768,0.201C131.427,170.198,131.708,166.22,132.833,162.684z"/>
	<path style="fill:#1D1D1B;" d="M126.685,232.848c0.603,1.085-0.924,1.849-1.607,0.924c-2.13-2.733-3.335-5.907-4.099-9.283
		c-0.241-1.125,1.447-1.567,1.768-0.442C123.591,227.182,125.037,230.035,126.685,232.848z"/>
	<path style="fill:#1D1D1B;" d="M120.054,229.392c0.522,0.924-0.804,1.648-1.407,0.804c-2.291-3.134-3.536-7.073-3.577-10.971
		c0-0.804,1.366-1.045,1.487-0.161C117.121,222.801,118.206,226.056,120.054,229.392z"/>
	<path style="fill:#1D1D1B;" d="M109.003,152.878c0.643-0.281,1.206,0.643,0.563,1.005c-2.813,1.688-5.827,2.049-9.002,1.326
		c-0.844-0.201-0.482-1.447,0.362-1.286C103.659,154.486,106.472,154.084,109.003,152.878z"/>
	<path style="fill:#1D1D1B;" d="M105.788,149.101c0.965-0.121,1.045,1.326,0.201,1.607c-3.255,1.085-6.671,0.924-10.006,0.08
		c-1.125-0.281-0.643-1.969,0.522-1.728C99.6,149.663,102.654,149.503,105.788,149.101z"/>
	<path style="fill:#1D1D1B;" d="M102.975,73.632c0.603,0.804-0.603,1.527-1.246,0.965c-1.326-1.125-2.049-2.572-2.411-4.3
		c-0.281-1.125,1.527-1.648,1.768-0.482C101.408,71.301,102.091,72.426,102.975,73.632z"/>
	<path style="fill:#1D1D1B;" d="M98.394,78.213c0.402,0.643-0.563,1.366-1.085,0.804c-2.13-2.21-3.014-4.903-3.014-7.957
		c0-1.125,1.728-1.125,1.768,0C96.104,73.632,96.988,76.083,98.394,78.213z"/>
	<path style="fill:#1D1D1B;" d="M93.974,131.499c0.924,0.161,0.723,1.768-0.241,1.688c-3.536-0.362-6.831-1.406-10.006-3.054
		c-1.005-0.522-0.121-2.009,0.884-1.527C87.584,130.053,90.719,130.937,93.974,131.499z"/>
	<path style="fill:#1D1D1B;" d="M87.464,135.036c0.844-0.241,1.366,1.005,0.603,1.407c-3.898,2.049-8.519,1.085-11.694-1.808
		c-0.884-0.804,0.442-2.09,1.326-1.326C80.431,135.759,84.048,136.121,87.464,135.036z"/>
</g>
<g>
</g>
<g>
</g>
<g>
</g>
<g>
</g>
<g>
</g>
<g>
</g>
<g>
</g>
<g>
</g>
<g>
</g>
<g>
</g>
<g>
</g>
<g>
</g>
<g>
</g>
<g>
</g>
<g>
</g>
</svg>
